<svg xmlns="http://www.w3.org/2000/svg" xmlns:xlink="http://www.w3.org/1999/xlink" width="1280" zoomAndPan="magnify" viewBox="0 0 960 540.000001" height="720" preserveAspectRatio="xMidYMid meet" version="1.0"><defs><g/><clipPath id="944b4b665e"><path d="M 335.167969 198 L 619.292969 198 L 619.292969 268.042969 L 335.167969 268.042969 Z M 335.167969 198 " clip-rule="nonzero"/></clipPath><clipPath id="8b8641cc4b"><path d="M 440 118.320312 L 514 118.320312 L 514 186 L 440 186 Z M 440 118.320312 " clip-rule="nonzero"/></clipPath></defs><g fill="#182a49" fill-opacity="1"><g transform="translate(45.739518, 386.233491)"><g><path d="M 112.90625 11.96875 C 110.125 15.320312 107.039062 17.992188 103.65625 19.984375 C 100.269531 21.984375 97.046875 23.269531 93.984375 23.84375 C 90.921875 24.414062 88.425781 24.703125 86.5 24.703125 C 84.570312 24.703125 82.378906 24.628906 79.921875 24.484375 C 77.460938 24.335938 74.304688 23.75 70.453125 22.71875 C 66.609375 21.6875 62.617188 20.457031 58.484375 19.03125 C 54.347656 17.601562 50.390625 16.035156 46.609375 14.328125 C 42.835938 12.617188 38.988281 10.925781 35.0625 9.25 C 31.144531 7.570312 27.515625 6.054688 24.171875 4.703125 C 16.753906 1.640625 10.550781 0.0703125 5.5625 0 L 4.8125 0 L 4.8125 -0.96875 L 44.046875 -70.46875 L 18.171875 -70.46875 C 14.898438 -70.394531 12.28125 -69.375 10.3125 -67.40625 C 8.351562 -65.445312 7.375 -62.832031 7.375 -59.5625 L 7.375 -58.265625 L 6.3125 -58.265625 L 6.3125 -76.875 C 7.375 -76.445312 9.242188 -76.019531 11.921875 -75.59375 C 14.597656 -75.164062 16.488281 -74.953125 17.59375 -74.953125 C 18.695312 -74.953125 19.25 -74.953125 19.25 -74.953125 L 53.359375 -74.953125 C 56.347656 -74.953125 58.875 -75.128906 60.9375 -75.484375 C 63.007812 -75.835938 64.222656 -76.125 64.578125 -76.34375 L 64.578125 -75.375 L 22.875 -0.859375 L 26.09375 -0.109375 C 28.582031 0.609375 32.410156 1.644531 37.578125 3 C 42.742188 4.351562 46.453125 5.332031 48.703125 5.9375 C 50.953125 6.539062 54.234375 7.375 58.546875 8.4375 C 62.859375 9.507812 66.0625 10.257812 68.15625 10.6875 C 70.257812 11.113281 73.109375 11.679688 76.703125 12.390625 C 80.304688 13.109375 83.109375 13.539062 85.109375 13.6875 C 90.671875 14.039062 94.21875 14.21875 95.75 14.21875 C 97.28125 14.21875 98.796875 14.144531 100.296875 14 C 104.992188 13.4375 108.945312 12.515625 112.15625 11.234375 Z M 112.90625 11.96875 "/></g></g></g><g fill="#182a49" fill-opacity="1"><g transform="translate(115.112644, 386.233491)"><g><path d="M 5.875 -1.0625 C 7.726562 -1.0625 9.3125 -1.722656 10.625 -3.046875 C 11.945312 -4.367188 12.644531 -5.957031 12.71875 -7.8125 L 12.71875 -67.359375 C 12.507812 -69.859375 11.332031 -71.710938 9.1875 -72.921875 C 8.125 -73.492188 7.019531 -73.78125 5.875 -73.78125 L 4.484375 -73.78125 L 4.484375 -74.84375 L 45.4375 -74.84375 C 47.644531 -74.84375 50.066406 -75.054688 52.703125 -75.484375 C 55.347656 -75.910156 57.203125 -76.335938 58.265625 -76.765625 L 58.265625 -58.0625 L 57.203125 -58.0625 L 57.203125 -59.34375 C 57.203125 -62.550781 56.253906 -65.132812 54.359375 -67.09375 C 52.472656 -69.050781 49.925781 -70.101562 46.71875 -70.25 L 28.765625 -70.25 L 28.765625 -39.140625 L 42.875 -39.140625 C 45.507812 -39.203125 47.679688 -40.109375 49.390625 -41.859375 C 51.109375 -43.609375 51.96875 -45.765625 51.96875 -48.328125 L 51.96875 -49.296875 L 53.03125 -49.296875 L 53.03125 -24.59375 L 51.96875 -24.59375 L 51.96875 -25.453125 C 51.96875 -29.015625 50.539062 -31.648438 47.6875 -33.359375 C 46.257812 -34.140625 44.691406 -34.566406 42.984375 -34.640625 L 28.765625 -34.640625 L 28.765625 -4.59375 L 42.765625 -4.59375 C 47.972656 -4.59375 52.335938 -6.085938 55.859375 -9.078125 C 59.390625 -12.078125 62.007812 -16.320312 63.71875 -21.8125 L 64.796875 -21.8125 L 59.875 0 L 4.484375 0 L 4.484375 -1.0625 Z M 5.875 -1.0625 "/></g></g></g><g fill="#182a49" fill-opacity="1"><g transform="translate(182.561725, 386.233491)"><g><path d="M 65.109375 -44.15625 C 62.691406 -38.59375 58.203125 -34.742188 51.640625 -32.609375 C 49.710938 -31.972656 47.929688 -31.65625 46.296875 -31.65625 C 41.234375 -31.65625 36.707031 -32.972656 32.71875 -35.609375 L 32.71875 -36.671875 C 38.0625 -36.523438 42.375 -38.269531 45.65625 -41.90625 C 48.582031 -45.050781 50.046875 -49.148438 50.046875 -54.203125 C 50.046875 -61.972656 47.332031 -67 41.90625 -69.28125 C 40.195312 -70 38.3125 -70.359375 36.25 -70.359375 L 29.078125 -70.359375 L 29.078125 -7.8125 C 29.078125 -5.957031 29.753906 -4.367188 31.109375 -3.046875 C 32.460938 -1.722656 34.066406 -1.0625 35.921875 -1.0625 L 37.3125 -1.0625 L 37.3125 0 L 4.8125 0 L 4.8125 -1.0625 L 6.203125 -1.0625 C 8.054688 -1.0625 9.640625 -1.722656 10.953125 -3.046875 C 12.273438 -4.367188 12.972656 -5.957031 13.046875 -7.8125 L 13.046875 -67.578125 C 12.753906 -69.992188 11.539062 -71.773438 9.40625 -72.921875 C 8.40625 -73.492188 7.335938 -73.78125 6.203125 -73.78125 L 4.8125 -73.78125 L 4.8125 -74.84375 L 40.515625 -74.84375 C 53.421875 -74.84375 61.691406 -70.742188 65.328125 -62.546875 C 66.472656 -59.835938 67.046875 -56.828125 67.046875 -53.515625 C 67.046875 -50.203125 66.398438 -47.082031 65.109375 -44.15625 Z M 65.109375 -44.15625 "/></g></g></g><g fill="#182a49" fill-opacity="1"><g transform="translate(252.576213, 386.233491)"><g><path d="M 56.5625 -1.0625 C 58.414062 -1.0625 59.84375 -1.523438 60.84375 -2.453125 C 62.476562 -4.097656 63.332031 -5.847656 63.40625 -7.703125 L 63.40625 -34.96875 L 28.765625 -34.96875 L 28.765625 -7.8125 C 28.765625 -5.957031 29.441406 -4.367188 30.796875 -3.046875 C 32.148438 -1.722656 33.753906 -1.0625 35.609375 -1.0625 L 36.890625 -1.0625 L 37 0 L 4.484375 0 L 4.484375 -1.0625 L 5.875 -1.0625 C 7.726562 -1.0625 9.3125 -1.722656 10.625 -3.046875 C 11.945312 -4.367188 12.644531 -5.957031 12.71875 -7.8125 L 12.71875 -67.140625 C 12.644531 -68.992188 11.945312 -70.5625 10.625 -71.84375 C 9.3125 -73.132812 7.726562 -73.78125 5.875 -73.78125 L 4.484375 -73.78125 L 4.484375 -74.84375 L 37 -74.84375 L 36.890625 -73.78125 L 35.609375 -73.78125 C 33.753906 -73.78125 32.148438 -73.132812 30.796875 -71.84375 C 29.441406 -70.5625 28.765625 -68.992188 28.765625 -67.140625 L 28.765625 -39.5625 L 63.40625 -39.5625 L 63.40625 -67.140625 C 63.332031 -68.992188 62.632812 -70.5625 61.3125 -71.84375 C 60 -73.132812 58.414062 -73.78125 56.5625 -73.78125 L 55.171875 -73.78125 L 55.171875 -74.84375 L 87.671875 -74.84375 L 87.671875 -73.78125 L 86.28125 -73.78125 C 84.425781 -73.78125 82.820312 -73.117188 81.46875 -71.796875 C 80.113281 -70.472656 79.4375 -68.890625 79.4375 -67.046875 L 79.4375 -7.8125 C 79.4375 -5.957031 80.113281 -4.367188 81.46875 -3.046875 C 82.820312 -1.722656 84.425781 -1.0625 86.28125 -1.0625 L 87.671875 -1.0625 L 87.671875 0 L 55.171875 0 L 55.171875 -1.0625 Z M 56.5625 -1.0625 "/></g></g></g><g fill="#182a49" fill-opacity="1"><g transform="translate(344.610543, 386.233491)"><g><path d="M 78.59375 -73.78125 L 77.09375 -73.78125 C 74.957031 -73.78125 72.925781 -73.171875 71 -71.953125 C 69.070312 -70.742188 67.539062 -69.285156 66.40625 -67.578125 L 45.34375 -34 L 45.34375 -7.8125 C 45.34375 -5.957031 46.019531 -4.367188 47.375 -3.046875 C 48.726562 -1.722656 50.332031 -1.0625 52.1875 -1.0625 L 53.46875 -1.0625 L 53.578125 0 L 21.0625 0 L 21.0625 -1.0625 L 22.453125 -1.0625 C 24.304688 -1.0625 25.890625 -1.703125 27.203125 -2.984375 C 28.523438 -4.273438 29.222656 -5.847656 29.296875 -7.703125 L 29.296875 -34.109375 L 8.875 -67.6875 C 7.800781 -69.394531 6.285156 -70.835938 4.328125 -72.015625 C 2.367188 -73.191406 0.359375 -73.78125 -1.703125 -73.78125 L -3.203125 -73.78125 L -3.203125 -74.84375 L 32.1875 -74.84375 L 32.1875 -73.78125 L 30.796875 -73.78125 C 29.222656 -73.78125 28.007812 -73.066406 27.15625 -71.640625 C 26.726562 -70.859375 26.515625 -70.09375 26.515625 -69.34375 C 26.515625 -68.59375 26.691406 -67.859375 27.046875 -67.140625 L 42.34375 -39.34375 L 58.171875 -67.140625 C 58.597656 -67.859375 58.8125 -68.59375 58.8125 -69.34375 C 58.8125 -70.09375 58.5625 -70.820312 58.0625 -71.53125 C 57.207031 -73.03125 55.992188 -73.78125 54.421875 -73.78125 L 53.140625 -73.78125 L 53.140625 -74.84375 L 78.59375 -74.84375 Z M 78.59375 -73.78125 "/></g></g></g><g fill="#182a49" fill-opacity="1"><g transform="translate(419.648971, 386.233491)"><g><path d="M 34 -70.140625 L 29.40625 -70.140625 C 29.257812 -70.140625 29.148438 -70.140625 29.078125 -70.140625 L 29.078125 -7.8125 C 29.148438 -5.164062 30.289062 -3.203125 32.5 -1.921875 C 33.570312 -1.347656 34.710938 -1.0625 35.921875 -1.0625 L 37.3125 -1.0625 L 37.3125 0 L 4.8125 0 L 4.8125 -1.0625 L 6.203125 -1.0625 C 8.765625 -1.0625 10.722656 -2.171875 12.078125 -4.390625 C 12.648438 -5.378906 12.972656 -6.484375 13.046875 -7.703125 L 13.046875 -67.046875 C 12.972656 -68.890625 12.273438 -70.472656 10.953125 -71.796875 C 9.640625 -73.117188 8.054688 -73.78125 6.203125 -73.78125 L 4.8125 -73.78125 L 4.8125 -74.84375 L 41.484375 -74.84375 C 48.398438 -74.84375 54.242188 -73.347656 59.015625 -70.359375 C 61.441406 -68.859375 63.367188 -66.769531 64.796875 -64.09375 C 66.222656 -61.425781 66.9375 -58.398438 66.9375 -55.015625 C 66.9375 -51.628906 66.347656 -48.507812 65.171875 -45.65625 C 63.992188 -42.800781 62.03125 -40.304688 59.28125 -38.171875 C 56.539062 -36.035156 53.242188 -34.753906 49.390625 -34.328125 C 53.523438 -32.972656 57.160156 -29.832031 60.296875 -24.90625 C 67.992188 -12.582031 73.695312 -5.242188 77.40625 -2.890625 C 79.257812 -1.742188 81.578125 -1.132812 84.359375 -1.0625 L 84.359375 0 L 73.890625 0 C 67.828125 0 62.765625 -0.835938 58.703125 -2.515625 C 54.640625 -4.191406 51.320312 -7.0625 48.75 -11.125 C 47.46875 -13.1875 45.828125 -16.300781 43.828125 -20.46875 C 41.835938 -24.644531 40.519531 -27.625 39.875 -29.40625 C 37.957031 -33.675781 35.535156 -36.0625 32.609375 -36.5625 L 32.609375 -37.640625 L 35.921875 -37.640625 C 39.128906 -37.640625 41.960938 -38.597656 44.421875 -40.515625 C 46.878906 -42.441406 48.535156 -45.582031 49.390625 -49.9375 C 49.679688 -51.425781 49.828125 -52.601562 49.828125 -53.46875 C 49.828125 -59.3125 48.648438 -63.53125 46.296875 -66.125 C 43.941406 -68.726562 40.910156 -70.066406 37.203125 -70.140625 C 36.492188 -70.140625 35.425781 -70.140625 34 -70.140625 Z M 34 -70.140625 "/></g></g></g><g fill="#182a49" fill-opacity="1"><g transform="translate(499.390677, 386.233491)"><g/></g></g><g fill="#182a49" fill-opacity="1"><g transform="translate(526.113756, 386.233491)"><g><path d="M 115.484375 -99.859375 C 118.753906 -100.710938 121.421875 -101.140625 123.484375 -101.140625 C 125.554688 -101.140625 127.203125 -101.070312 128.421875 -100.9375 L 128.421875 -99.859375 C 119.078125 -99.359375 111.59375 -95.082031 105.96875 -87.03125 C 103.039062 -82.894531 100.6875 -78.082031 98.90625 -72.59375 L 78.796875 -9.9375 C 77.585938 -6.019531 76.984375 -2.382812 76.984375 0.96875 C 76.984375 1.320312 76.984375 1.640625 76.984375 1.921875 L 75.921875 1.921875 L 52.71875 -49.609375 L 33.6875 -4.390625 C 31.757812 0.316406 28.941406 4.878906 25.234375 9.296875 C 21.242188 14.003906 16.394531 17.109375 10.6875 18.609375 C 9.332031 19.035156 7.90625 19.25 6.40625 19.25 C 4.914062 19.25 3.316406 19 1.609375 18.5 L 1.71875 17.421875 C 4.351562 17.285156 6.898438 16.570312 9.359375 15.28125 C 11.816406 14 13.972656 12.445312 15.828125 10.625 C 17.679688 8.8125 19.460938 6.695312 21.171875 4.28125 C 23.953125 0.351562 26.304688 -3.921875 28.234375 -8.546875 L 6.53125 -67.578125 C 5.601562 -69.640625 4.28125 -71.1875 2.5625 -72.21875 C 0.851562 -73.257812 -0.890625 -73.78125 -2.671875 -73.78125 L -3.53125 -73.78125 L -3.53125 -74.84375 L 29.078125 -74.84375 L 29.078125 -73.78125 L 28.125 -73.78125 C 26.625 -73.78125 25.5 -73.296875 24.75 -72.328125 C 24 -71.367188 23.625 -70.460938 23.625 -69.609375 C 23.625 -68.753906 23.769531 -67.929688 24.0625 -67.140625 L 37.21875 -30.046875 L 56.5625 -76.5625 L 57.53125 -76.453125 L 78.796875 -29.515625 L 91.09375 -72.59375 C 92.875 -78.800781 95.691406 -84.289062 99.546875 -89.0625 C 104.035156 -94.695312 109.347656 -98.296875 115.484375 -99.859375 Z M 115.484375 -99.859375 "/></g></g></g><g fill="#182a49" fill-opacity="1"><g transform="translate(628.730411, 386.233491)"><g><path d="M 5.875 -1.0625 C 7.726562 -1.0625 9.3125 -1.722656 10.625 -3.046875 C 11.945312 -4.367188 12.644531 -5.957031 12.71875 -7.8125 L 12.71875 -67.359375 C 12.507812 -69.859375 11.332031 -71.710938 9.1875 -72.921875 C 8.125 -73.492188 7.019531 -73.78125 5.875 -73.78125 L 4.484375 -73.78125 L 4.484375 -74.84375 L 45.4375 -74.84375 C 47.644531 -74.84375 50.066406 -75.054688 52.703125 -75.484375 C 55.347656 -75.910156 57.203125 -76.335938 58.265625 -76.765625 L 58.265625 -58.0625 L 57.203125 -58.0625 L 57.203125 -59.34375 C 57.203125 -62.550781 56.253906 -65.132812 54.359375 -67.09375 C 52.472656 -69.050781 49.925781 -70.101562 46.71875 -70.25 L 28.765625 -70.25 L 28.765625 -39.140625 L 42.875 -39.140625 C 45.507812 -39.203125 47.679688 -40.109375 49.390625 -41.859375 C 51.109375 -43.609375 51.96875 -45.765625 51.96875 -48.328125 L 51.96875 -49.296875 L 53.03125 -49.296875 L 53.03125 -24.59375 L 51.96875 -24.59375 L 51.96875 -25.453125 C 51.96875 -29.015625 50.539062 -31.648438 47.6875 -33.359375 C 46.257812 -34.140625 44.691406 -34.566406 42.984375 -34.640625 L 28.765625 -34.640625 L 28.765625 -4.59375 L 42.765625 -4.59375 C 47.972656 -4.59375 52.335938 -6.085938 55.859375 -9.078125 C 59.390625 -12.078125 62.007812 -16.320312 63.71875 -21.8125 L 64.796875 -21.8125 L 59.875 0 L 4.484375 0 L 4.484375 -1.0625 Z M 5.875 -1.0625 "/></g></g></g><g fill="#182a49" fill-opacity="1"><g transform="translate(696.179493, 386.233491)"><g><path d="M 78.90625 -1.0625 L 79.875 -1.0625 L 79.875 0 L 45.765625 0 L 45.765625 -1.0625 L 46.734375 -1.0625 C 48.296875 -1.0625 49.453125 -1.539062 50.203125 -2.5 C 50.953125 -3.46875 51.328125 -4.378906 51.328125 -5.234375 C 51.328125 -6.085938 51.148438 -6.945312 50.796875 -7.8125 L 45.546875 -20.953125 L 20.53125 -20.953125 L 14.96875 -7.8125 C 14.613281 -6.882812 14.4375 -6.007812 14.4375 -5.1875 C 14.4375 -4.363281 14.8125 -3.46875 15.5625 -2.5 C 16.3125 -1.539062 17.503906 -1.0625 19.140625 -1.0625 L 20 -1.0625 L 20 0 L -2.890625 0 L -2.890625 -1.0625 L -1.921875 -1.0625 C -0.285156 -1.0625 1.347656 -1.5625 2.984375 -2.5625 C 4.628906 -3.5625 5.988281 -5.0625 7.0625 -7.0625 L 31.765625 -62.984375 C 35.109375 -70.035156 36.890625 -74.703125 37.109375 -76.984375 L 38.0625 -76.984375 L 69.828125 -7.265625 C 70.890625 -5.203125 72.238281 -3.648438 73.875 -2.609375 C 75.519531 -1.578125 77.195312 -1.0625 78.90625 -1.0625 Z M 22.34375 -25.453125 L 43.734375 -25.453125 L 33.359375 -51.75 Z M 22.34375 -25.453125 "/></g></g></g><g fill="#182a49" fill-opacity="1"><g transform="translate(772.714431, 386.233491)"><g><path d="M 34 -70.140625 L 29.40625 -70.140625 C 29.257812 -70.140625 29.148438 -70.140625 29.078125 -70.140625 L 29.078125 -7.8125 C 29.148438 -5.164062 30.289062 -3.203125 32.5 -1.921875 C 33.570312 -1.347656 34.710938 -1.0625 35.921875 -1.0625 L 37.3125 -1.0625 L 37.3125 0 L 4.8125 0 L 4.8125 -1.0625 L 6.203125 -1.0625 C 8.765625 -1.0625 10.722656 -2.171875 12.078125 -4.390625 C 12.648438 -5.378906 12.972656 -6.484375 13.046875 -7.703125 L 13.046875 -67.046875 C 12.972656 -68.890625 12.273438 -70.472656 10.953125 -71.796875 C 9.640625 -73.117188 8.054688 -73.78125 6.203125 -73.78125 L 4.8125 -73.78125 L 4.8125 -74.84375 L 41.484375 -74.84375 C 48.398438 -74.84375 54.242188 -73.347656 59.015625 -70.359375 C 61.441406 -68.859375 63.367188 -66.769531 64.796875 -64.09375 C 66.222656 -61.425781 66.9375 -58.398438 66.9375 -55.015625 C 66.9375 -51.628906 66.347656 -48.507812 65.171875 -45.65625 C 63.992188 -42.800781 62.03125 -40.304688 59.28125 -38.171875 C 56.539062 -36.035156 53.242188 -34.753906 49.390625 -34.328125 C 53.523438 -32.972656 57.160156 -29.832031 60.296875 -24.90625 C 67.992188 -12.582031 73.695312 -5.242188 77.40625 -2.890625 C 79.257812 -1.742188 81.578125 -1.132812 84.359375 -1.0625 L 84.359375 0 L 73.890625 0 C 67.828125 0 62.765625 -0.835938 58.703125 -2.515625 C 54.640625 -4.191406 51.320312 -7.0625 48.75 -11.125 C 47.46875 -13.1875 45.828125 -16.300781 43.828125 -20.46875 C 41.835938 -24.644531 40.519531 -27.625 39.875 -29.40625 C 37.957031 -33.675781 35.535156 -36.0625 32.609375 -36.5625 L 32.609375 -37.640625 L 35.921875 -37.640625 C 39.128906 -37.640625 41.960938 -38.597656 44.421875 -40.515625 C 46.878906 -42.441406 48.535156 -45.582031 49.390625 -49.9375 C 49.679688 -51.425781 49.828125 -52.601562 49.828125 -53.46875 C 49.828125 -59.3125 48.648438 -63.53125 46.296875 -66.125 C 43.941406 -68.726562 40.910156 -70.066406 37.203125 -70.140625 C 36.492188 -70.140625 35.425781 -70.140625 34 -70.140625 Z M 34 -70.140625 "/></g></g></g><g fill="#182a49" fill-opacity="1"><g transform="translate(852.456137, 386.233491)"><g><path d="M 5.34375 -9.9375 C 5.34375 -15.070312 6.445312 -19.457031 8.65625 -23.09375 L 9.625 -23.09375 C 9.550781 -22.519531 9.515625 -21.953125 9.515625 -21.390625 C 9.515625 -16.460938 11.273438 -12.164062 14.796875 -8.5 C 18.328125 -4.832031 23.160156 -3 29.296875 -3 C 34.066406 -3 37.789062 -4.140625 40.46875 -6.421875 C 43.144531 -8.703125 44.484375 -11.585938 44.484375 -15.078125 C 44.484375 -19.285156 41.628906 -22.957031 35.921875 -26.09375 L 17.328125 -38.390625 C 13.617188 -40.523438 10.960938 -43.109375 9.359375 -46.140625 C 7.753906 -49.171875 6.953125 -52.253906 6.953125 -55.390625 C 6.953125 -62.085938 9.070312 -67.253906 13.3125 -70.890625 C 17.550781 -74.523438 22.988281 -76.34375 29.625 -76.34375 C 33.539062 -76.34375 38.382812 -75.984375 44.15625 -75.265625 L 50.890625 -75.265625 L 49.5 -59.5625 L 48.4375 -59.5625 C 48.4375 -63.257812 47.0625 -66.226562 44.3125 -68.46875 C 41.570312 -70.71875 37.921875 -71.84375 33.359375 -71.84375 C 27.796875 -71.84375 23.769531 -70.132812 21.28125 -66.71875 C 20 -65.082031 19.359375 -63.226562 19.359375 -61.15625 C 19.359375 -57.738281 21.851562 -54.566406 26.84375 -51.640625 L 47.265625 -38.390625 C 53.671875 -34.679688 56.875 -29.226562 56.875 -22.03125 C 56.875 -14.394531 54.289062 -8.5625 49.125 -4.53125 C 43.957031 -0.507812 37.097656 1.5 28.546875 1.5 C 23.703125 1.5 19.226562 0.910156 15.125 -0.265625 C 11.03125 -1.441406 8.019531 -3.03125 6.09375 -5.03125 C 5.59375 -6.382812 5.34375 -8.019531 5.34375 -9.9375 Z M 5.34375 -9.9375 "/></g></g></g><g clip-path="url(#944b4b665e)"><path fill="#182a49" d="M 366.535156 303.441406 L 587.925781 303.441406 C 605.109375 303.441406 619.082031 289.460938 619.082031 272.285156 C 619.082031 259.214844 610.828125 247.441406 598.542969 242.992188 L 476.945312 198.9375 C 476.144531 198.648438 475.269531 198.648438 474.476562 198.945312 L 355.714844 242.925781 C 343.550781 247.425781 335.378906 259.171875 335.378906 272.140625 L 335.378906 272.285156 C 335.378906 289.460938 349.351562 303.441406 366.535156 303.441406 Z M 475.734375 206.117188 L 596.097656 249.730469 C 605.558594 253.15625 611.914062 262.21875 611.914062 272.285156 C 611.914062 285.507812 601.152344 296.273438 587.925781 296.273438 L 366.535156 296.273438 C 353.304688 296.273438 342.546875 285.507812 342.546875 272.285156 L 342.546875 272.140625 C 342.546875 262.152344 348.839844 253.113281 358.203125 249.644531 Z M 475.734375 206.117188 " fill-opacity="1" fill-rule="nonzero"/></g><g clip-path="url(#8b8641cc4b)"><path fill="#182a49" d="M 473.894531 185.375 C 475.875 185.375 477.480469 183.769531 477.480469 181.792969 C 477.480469 179.8125 475.875 178.207031 473.894531 178.207031 C 466.765625 178.207031 460.09375 175.398438 455.105469 170.292969 C 450.125 165.191406 447.472656 158.449219 447.640625 151.304688 C 447.800781 144.585938 450.53125 138.230469 455.332031 133.417969 C 460.128906 128.605469 466.476562 125.863281 473.195312 125.6875 C 484.902344 125.394531 495.195312 132.632812 498.847656 143.71875 C 499.640625 146.132812 501.398438 148.15625 503.664062 149.273438 L 508.832031 151.820312 C 510.605469 152.695312 512.757812 151.964844 513.628906 150.191406 C 514.503906 148.414062 513.773438 146.265625 512 145.390625 L 506.835938 142.84375 C 506.273438 142.566406 505.855469 142.085938 505.660156 141.476562 C 503.460938 134.804688 499.09375 128.863281 493.355469 124.753906 C 487.402344 120.488281 480.371094 118.332031 473.015625 118.527344 C 464.449219 118.75 456.367188 122.242188 450.261719 128.363281 C 444.15625 134.480469 440.683594 142.570312 440.476562 151.136719 C 440.261719 160.226562 443.636719 168.804688 449.980469 175.300781 C 456.316406 181.796875 464.8125 185.375 473.894531 185.375 Z M 473.894531 185.375 " fill-opacity="1" fill-rule="nonzero"/></g><path fill="#182a49" d="M 475.71875 205.886719 C 477.699219 205.886719 479.304688 204.277344 479.304688 202.300781 L 479.304688 181.792969 C 479.304688 179.8125 477.699219 178.207031 475.71875 178.207031 C 473.742188 178.207031 472.136719 179.8125 472.136719 181.792969 L 472.136719 202.300781 C 472.136719 204.285156 473.742188 205.886719 475.71875 205.886719 Z M 475.71875 205.886719 " fill-opacity="1" fill-rule="nonzero"/></svg>